<?xml version="1.0" encoding="utf-8"?>

<!DOCTYPE svg PUBLIC "-//W3C//DTD SVG 1.1//EN" "http://www.w3.org/Graphics/SVG/1.1/DTD/svg11.dtd">
<svg version="1.1" id="Layer_1" xmlns="http://www.w3.org/2000/svg" xmlns:xlink="http://www.w3.org/1999/xlink" x="0px" y="0px"
	 viewBox="0 0 1646.957 1646.506" enable-background="new 0 0 1646.957 1646.506" xml:space="preserve">
<g>
	<circle fill="#3A5900" cx="823.655" cy="45.208" r="21.954"/>
	<ellipse fill="#000098" cx="823.476" cy="138.579" rx="33.918" ry="62.548"/>
	
		<ellipse transform="matrix(0.9956 -0.0938 0.0938 0.9956 -1.2709 70.2797)" fill="#0000EC" cx="747.359" cy="48.666" rx="21.954" ry="21.954"/>
	
		<ellipse transform="matrix(0.9956 -0.0938 0.0938 0.9956 -9.9498 71.4932)" fill="#003400" cx="755.935" cy="141.643" rx="33.918" ry="62.548"/>
	
		<ellipse transform="matrix(0.9825 -0.1862 0.1862 0.9825 0.8444 126.7063)" fill="#000057" cx="674.897" cy="58.858" rx="21.954" ry="21.954"/>
	
		<ellipse transform="matrix(0.9825 -0.1862 0.1862 0.9825 -15.9438 131.5166)" fill="#007C03" cx="692.109" cy="150.63" rx="33.918" ry="62.548"/>
	
		<ellipse transform="matrix(0.9611 -0.2763 0.2763 0.9611 2.7474 170.4462)" fill="#000098" cx="606.208" cy="75.474" rx="21.954" ry="21.954"/>
	
		<ellipse transform="matrix(0.9611 -0.2763 0.2763 0.9611 -21.0642 181.0238)" fill="#F80000" cx="631.838" cy="165.259" rx="33.918" ry="62.548"/>
	
		<ellipse transform="matrix(0.9317 -0.3632 0.3632 0.9317 1.1978 202.7563)" fill="#403C00" cx="539.813" cy="98.193" rx="21.954" ry="21.954"/>
	
		<ellipse transform="matrix(0.9317 -0.3632 0.3632 0.9317 -28.117 220.9567)" fill="#000045" cx="573.558" cy="185.253" rx="33.918" ry="62.548"/>
	
		<ellipse transform="matrix(0.895 -0.4461 0.4461 0.895 -6.5156 225.7052)" fill="#00001E" cx="476.095" cy="126.691" rx="21.954" ry="21.954"/>
	
		<ellipse transform="matrix(0.895 -0.4461 0.4461 0.895 -39.4731 253.0029)" fill="#4600F0" cx="517.591" cy="210.335" rx="33.918" ry="62.548"/>
	
		<ellipse transform="matrix(0.8513 -0.5246 0.5246 0.8513 -22.5149 241.8325)" fill="#000098" cx="415.426" cy="160.641" rx="21.954" ry="21.954"/>
	
		<ellipse transform="matrix(0.8513 -0.5246 0.5246 0.8513 -57.0066 279.2852)" fill="#7C3400" cx="464.261" cy="240.224" rx="33.918" ry="62.548"/>
	
		<ellipse transform="matrix(0.8012 -0.5983 0.5983 0.8012 -48.3124 253.9998)" fill="#62009B" cx="358.161" cy="199.719" rx="21.954" ry="21.954"/>
	
		<ellipse transform="matrix(0.8012 -0.5983 0.5983 0.8012 -82.0639 302.2338)" fill="#003400" cx="413.887" cy="274.638" rx="33.918" ry="62.548"/>
	
		<ellipse transform="matrix(0.7451 -0.6669 0.6669 0.7451 -84.818 265.2696)" fill="#00007F" cx="304.641" cy="243.601" rx="21.954" ry="21.954"/>
	
		<ellipse transform="matrix(0.7451 -0.6669 0.6669 0.7451 -115.4586 324.4773)" fill="#00001E" cx="366.781" cy="313.292" rx="33.918" ry="62.548"/>
	
		<ellipse transform="matrix(0.6833 -0.7302 0.7302 0.6833 -132.3552 278.8129)" fill="#003400" cx="255.196" cy="291.966" rx="21.954" ry="21.954"/>
	
		<ellipse transform="matrix(0.6833 -0.7302 0.7302 0.6833 -157.4775 348.7532)" fill="#2E301F" cx="323.251" cy="355.893" rx="33.918" ry="62.548"/>
	
		<ellipse transform="matrix(0.616 -0.7878 0.7878 0.616 -190.6719 297.8374)" fill="#A60000" cx="210.151" cy="344.487" rx="21.954" ry="21.954"/>
	
		<ellipse transform="matrix(0.616 -0.7878 0.7878 0.616 -207.8866 377.8347)" fill="#528FF4" cx="283.595" cy="402.143" rx="33.918" ry="62.548"/>
	
		<ellipse transform="matrix(0.5435 -0.8394 0.8394 0.5435 -258.9383 325.5234)" fill="#F80000" cx="169.828" cy="400.839" rx="21.954" ry="21.954"/>
	
		<ellipse transform="matrix(0.5435 -0.8394 0.8394 0.5435 -265.9313 414.4635)" fill="#BDD300" cx="248.107" cy="451.738" rx="33.918" ry="62.548"/>
	
		<ellipse transform="matrix(0.4662 -0.8847 0.8847 0.4662 -335.7327 364.9536)" fill="#C60000" cx="134.552" cy="460.681" rx="21.954" ry="21.954"/>
	
		<ellipse transform="matrix(0.4662 -0.8847 0.8847 0.4662 -330.3303 461.2792)" fill="#9FF300" cx="217.073" cy="504.367" rx="33.918" ry="62.548"/>
	
		<ellipse transform="matrix(0.3843 -0.9232 0.9232 0.3843 -419.0193 419.024)" fill="#00003B" cx="104.646" cy="523.664" rx="21.954" ry="21.954"/>
	
		<ellipse transform="matrix(0.3843 -0.9232 0.9232 0.3843 -399.2682 520.7361)" fill="#2F0022" cx="190.778" cy="559.712" rx="33.918" ry="62.548"/>
	
		<ellipse transform="matrix(0.2984 -0.9545 0.9545 0.2984 -506.1359 490.3273)" fill="#9FF300" cx="80.436" cy="589.42" rx="21.954" ry="21.954"/>
	
		<ellipse transform="matrix(0.2984 -0.9545 0.9545 0.2984 -470.3976 595.0017)" fill="#00007F" cx="169.501" cy="617.449" rx="33.918" ry="62.548"/>
	
		<ellipse transform="matrix(0.209 -0.9779 0.9779 0.209 -593.8072 581.0092)" fill="#CE005B" cx="62.249" cy="657.568" rx="21.954" ry="21.954"/>
	
		<ellipse transform="matrix(0.209 -0.9779 0.9779 0.209 -540.8653 685.8394)" fill="#4600F0" cx="153.521" cy="677.257" rx="33.918" ry="62.548"/>
	
		<ellipse transform="matrix(0.117 -0.9931 0.9931 0.117 -678.9127 693.2331)" fill="#8B00F0" cx="50.405" cy="728.424" rx="21.954" ry="21.954"/>
	
		<ellipse transform="matrix(0.117 -0.9931 0.9931 0.117 -608.082 795.1097)" fill="#62009B" cx="143.114" cy="739.529" rx="33.918" ry="62.548"/>
	
		<ellipse transform="matrix(0.0235 -0.9997 0.9997 0.0235 -759.9011 830.5895)" fill="#860000" cx="45.218" cy="804.279" rx="21.954" ry="21.954"/>
	
		<ellipse transform="matrix(0.0235 -0.9997 0.9997 0.0235 -671.1235 926.2211)" fill="#5EB2E1" cx="138.559" cy="806.65" rx="33.918" ry="62.548"/>
	
		<ellipse transform="matrix(0.9975 -0.0704 0.0704 0.9975 -61.8873 5.4894)" fill="#62009B" cx="46.948" cy="880.894" rx="21.954" ry="21.954"/>
	
		<ellipse transform="matrix(0.9975 -0.0704 0.0704 0.9975 -61.2062 12.0302)" fill="#A60000" cx="140.1" cy="874.5" rx="62.548" ry="33.918"/>
	
		<ellipse transform="matrix(0.9866 -0.1633 0.1633 0.9866 -155.1546 21.8735)" fill="#0700DC" cx="55.485" cy="954.783" rx="21.954" ry="21.954"/>
	
		<ellipse transform="matrix(0.9866 -0.1633 0.1633 0.9866 -151.4573 36.7173)" fill="#0000D0" cx="147.632" cy="939.713" rx="62.548" ry="33.918"/>
	
		<ellipse transform="matrix(0.9672 -0.2541 0.2541 0.9672 -257.8463 51.5182)" fill="#B70071" cx="70.524" cy="1023.983" rx="21.954" ry="21.954"/>
	
		<ellipse transform="matrix(0.9672 -0.2541 0.2541 0.9672 -248.8982 73.7011)" fill="#F80000" cx="160.877" cy="1000.433" rx="62.548" ry="33.918"/>
	
		<ellipse transform="matrix(0.9398 -0.3418 0.3418 0.9398 -367.3872 97.0726)" fill="#000045" cx="91.748" cy="1090.988" rx="21.954" ry="21.954"/>
	
		<ellipse transform="matrix(0.9398 -0.3418 0.3418 0.9398 -351.2465 125.1744)" fill="#00003B" cx="179.556" cy="1059.24" rx="62.548" ry="33.918"/>
	
		<ellipse transform="matrix(0.9048 -0.4258 0.4258 0.9048 -480.6516 160.5664)" fill="#B13F00" cx="118.831" cy="1155.411" rx="21.954" ry="21.954"/>
	
		<ellipse transform="matrix(0.9048 -0.4258 0.4258 0.9048 -455.7441 192.8027)" fill="#8C8761" cx="203.392" cy="1115.816" rx="62.548" ry="33.918"/>
	
		<ellipse transform="matrix(0.8629 -0.5054 0.5054 0.8629 -594.299 243.4368)" fill="#0000D0" cx="151.449" cy="1216.876" rx="21.954" ry="21.954"/>
	
		<ellipse transform="matrix(0.8629 -0.5054 0.5054 0.8629 -559.4608 277.7531)" fill="#0000D0" cx="232.105" cy="1169.835" rx="62.548" ry="33.918"/>
	
		<ellipse transform="matrix(0.8143 -0.5804 0.5804 0.8143 -704.8655 346.5719)" fill="#004200" cx="189.276" cy="1275.024" rx="21.954" ry="21.954"/>
	
		<ellipse transform="matrix(0.8143 -0.5804 0.5804 0.8143 -659.3619 380.7281)" fill="#007C03" cx="265.415" cy="1220.978" rx="62.548" ry="33.918"/>
	
		<ellipse transform="matrix(0.7597 -0.6503 0.6503 0.7597 -808.8142 470.3538)" fill="#F80000" cx="231.987" cy="1329.512" rx="21.954" ry="21.954"/>
	
		<ellipse transform="matrix(0.7597 -0.6503 0.6503 0.7597 -752.3443 501.9973)" fill="#9FF300" cx="303.036" cy="1268.929" rx="62.548" ry="33.918"/>
	
		<ellipse transform="matrix(0.6992 -0.7149 0.7149 0.6992 -902.5532 614.6831)" fill="#62009B" cx="279.261" cy="1380.007" rx="21.954" ry="21.954"/>
	
		<ellipse transform="matrix(0.6992 -0.7149 0.7149 0.6992 -835.2498 641.4106)" fill="#0000B5" cx="344.678" cy="1313.382" rx="62.548" ry="33.918"/>
	
		<ellipse transform="matrix(0.6333 -0.7739 0.7739 0.6333 -982.4381 778.9724)" fill="#8B00F0" cx="330.774" cy="1426.182" rx="21.954" ry="21.954"/>
	
		<ellipse transform="matrix(0.6333 -0.7739 0.7739 0.6333 -904.8679 798.3849)" fill="#BDD300" cx="390.044" cy="1354.034" rx="62.548" ry="33.918"/>
	
		<ellipse transform="matrix(0.5621 -0.8271 0.8271 0.5621 -1044.7777 962.1038)" fill="#520095" cx="386.199" cy="1467.715" rx="21.954" ry="21.954"/>
	
		<ellipse transform="matrix(0.5621 -0.8271 0.8271 0.5621 -957.9446 971.8627)" fill="#2E301F" cx="438.832" cy="1390.592" rx="62.548" ry="33.918"/>
	
		<ellipse transform="matrix(0.486 -0.874 0.874 0.486 -1085.8628 1162.3534)" fill="#42F800" cx="445.201" cy="1504.284" rx="21.954" ry="21.954"/>
	
		<ellipse transform="matrix(0.486 -0.874 0.874 0.486 -991.2133 1160.243)" fill="#4600F0" cx="490.732" cy="1422.766" rx="62.548" ry="33.918"/>
	
		<ellipse transform="matrix(0.4052 -0.9142 0.9142 0.4052 -1102.037 1377.2952)" fill="#009A84" cx="507.433" cy="1535.563" rx="21.954" ry="21.954"/>
	
		<ellipse transform="matrix(0.4052 -0.9142 0.9142 0.4052 -1001.4603 1361.2988)" fill="#6700F3" cx="545.428" cy="1450.272" rx="62.548" ry="33.918"/>
	
		<ellipse transform="matrix(0.3202 -0.9473 0.9473 0.3202 -1089.8221 1603.7019)" fill="#00003B" cx="572.531" cy="1561.227" rx="21.954" ry="21.954"/>
	
		<ellipse transform="matrix(0.3202 -0.9473 0.9473 0.3202 -985.6392 1572.0929)" fill="#3A5900" cx="602.598" cy="1472.829" rx="62.548" ry="33.918"/>
	
		<ellipse transform="matrix(0.2316 -0.9728 0.9728 0.2316 -1046.1063 1837.4755)" fill="#0000D0" cx="640.117" cy="1580.951" rx="21.954" ry="21.954"/>
	
		<ellipse transform="matrix(0.2316 -0.9728 0.9728 0.2316 -941.0336 1788.9213)" fill="#0000B5" cx="661.917" cy="1490.16" rx="62.548" ry="33.918"/>
	
		<ellipse transform="matrix(0.1402 -0.9901 0.9901 0.1402 -968.3827 2073.6382)" fill="#0700DC" cx="709.802" cy="1594.41" rx="21.954" ry="21.954"/>
	
		<ellipse transform="matrix(0.1402 -0.9901 0.9901 0.1402 -865.4637 2007.3109)" fill="#86848F" cx="723.07" cy="1501.986" rx="62.548" ry="33.918"/>
	
		<ellipse transform="matrix(0.047 -0.9989 0.9989 0.047 -851.4475 2310.1626)" fill="#860000" cx="784.938" cy="1601.29" rx="21.954" ry="21.954"/>
	
		<ellipse transform="matrix(0.047 -0.9989 0.9989 0.047 -753.9419 2225.8401)" fill="#6700F3" cx="789.5" cy="1508.03" rx="62.548" ry="33.918"/>
	
		<ellipse transform="matrix(0.9989 -0.047 0.047 0.9989 -74.2487 42.2315)" fill="#520095" cx="861.659" cy="1601.298" rx="21.954" ry="21.954"/>
	
		<ellipse transform="matrix(0.9989 -0.047 0.047 0.9989 -69.8729 41.931)" fill="#009867" cx="857.452" cy="1508.022" rx="33.918" ry="62.548"/>
	
		<ellipse transform="matrix(0.9901 -0.1402 0.1402 0.9901 -214.3086 147.1302)" fill="#0700DC" cx="936.975" cy="1594.435" rx="21.954" ry="21.954"/>
	
		<ellipse transform="matrix(0.9901 -0.1402 0.1402 0.9901 -201.4699 144.4056)" fill="#0097B8" cx="924.059" cy="1501.961" rx="33.918" ry="62.548"/>
	
		<ellipse transform="matrix(0.9728 -0.2316 0.2316 0.9728 -338.8187 276.1604)" fill="#B70071" cx="1006.662" cy="1580.992" rx="21.954" ry="21.954"/>
	
		<ellipse transform="matrix(0.9728 -0.2316 0.2316 0.9728 -318.3537 268.72)" fill="#0097B8" cx="985.209" cy="1490.118" rx="33.918" ry="62.548"/>
	
		<ellipse transform="matrix(0.9473 -0.3202 0.3202 0.9473 -443.3688 426.1843)" fill="#0700DC" cx="1074.253" cy="1561.284" rx="21.954" ry="21.954"/>
	
		<ellipse transform="matrix(0.9473 -0.3202 0.3202 0.9473 -416.5921 412.0046)" fill="#0000EC" cx="1044.524" cy="1472.772" rx="33.918" ry="62.548"/>
	
		<ellipse transform="matrix(0.9142 -0.4052 0.4052 0.9142 -524.4951 593.3477)" fill="#640000" cx="1139.357" cy="1535.635" rx="21.954" ry="21.954"/>
	
		<ellipse transform="matrix(0.9142 -0.4052 0.4052 0.9142 -493.1088 570.7575)" fill="#42F800" cx="1101.688" cy="1450.199" rx="33.918" ry="62.548"/>
	
		<ellipse transform="matrix(0.874 -0.486 0.486 0.874 -579.6427 773.5137)" fill="#42F800" cx="1201.596" cy="1504.37" rx="21.954" ry="21.954"/>
	
		<ellipse transform="matrix(0.874 -0.486 0.486 0.874 -545.6423 741.2439)" fill="#86848F" cx="1156.377" cy="1422.679" rx="33.918" ry="62.548"/>
	
		<ellipse transform="matrix(0.8271 -0.5621 0.5621 0.8271 -607.0693 962.4462)" fill="#42F800" cx="1260.606" cy="1467.815" rx="21.954" ry="21.954"/>
	
		<ellipse transform="matrix(0.8271 -0.5621 0.5621 0.8271 -572.6558 919.6541)" fill="#3A5900" cx="1208.268" cy="1390.491" rx="33.918" ry="62.548"/>
	
		<ellipse transform="matrix(0.7739 -0.6333 0.6333 0.7739 -605.7234 1155.92)" fill="#9FF300" cx="1316.041" cy="1426.295" rx="21.954" ry="21.954"/>
	
		<ellipse transform="matrix(0.7739 -0.6333 0.6333 0.7739 -573.2274 1102.1962)" fill="#BDD300" cx="1257.047" cy="1353.921" rx="33.918" ry="62.548"/>
	
		<ellipse transform="matrix(0.7149 -0.6992 0.6992 0.7149 -575.1328 1349.762)" fill="#C500CD" cx="1367.564" cy="1380.131" rx="21.954" ry="21.954"/>
	
		<ellipse transform="matrix(0.7149 -0.6992 0.6992 0.7149 -546.9503 1285.1309)" fill="#007C03" cx="1302.402" cy="1313.257" rx="33.918" ry="62.548"/>
	
		<ellipse transform="matrix(0.6503 -0.7597 0.7597 0.6503 -515.3265 1539.8429)" fill="#009A84" cx="1414.85" cy="1329.648" rx="21.954" ry="21.954"/>
	
		<ellipse transform="matrix(0.6503 -0.7597 0.7597 0.6503 -493.8626 1464.7625)" fill="#8C8761" cx="1344.032" cy="1268.794" rx="33.918" ry="62.548"/>
	
		<ellipse transform="matrix(0.5804 -0.8143 0.8143 0.5804 -426.805 1722.0421)" fill="#5EB2E1" cx="1457.574" cy="1275.169" rx="21.954" ry="21.954"/>
	
		<ellipse transform="matrix(0.5804 -0.8143 0.8143 0.5804 -414.4189 1637.4066)" fill="#4EC95B" cx="1381.641" cy="1220.833" rx="33.918" ry="62.548"/>
	
		<ellipse transform="matrix(0.5054 -0.8629 0.8629 0.5054 -310.5639 1892.2097)" fill="#00EF00" cx="1495.414" cy="1217.03" rx="21.954" ry="21.954"/>
	
		<ellipse transform="matrix(0.5054 -0.8629 0.8629 0.5054 -309.5087 1799.3545)" fill="#5100E3" cx="1414.938" cy="1169.682" rx="33.918" ry="62.548"/>
	
		<ellipse transform="matrix(0.4258 -0.9048 0.9048 0.4258 -168.1674 2046.1517)" fill="#002300" cx="1528.046" cy="1155.572" rx="21.954" ry="21.954"/>
	
		<ellipse transform="matrix(0.4258 -0.9048 0.9048 0.4258 -180.5172 1946.8558)" fill="#9FF300" cx="1443.637" cy="1115.655" rx="33.918" ry="62.548"/>
	
		<ellipse transform="matrix(0.3418 -0.9398 0.9398 0.3418 -1.8567 2179.6604)" fill="#2E301F" cx="1555.144" cy="1091.156" rx="21.954" ry="21.954"/>
	
		<ellipse transform="matrix(0.3418 -0.9398 0.9398 0.3418 -29.4204 2076.1389)" fill="#0097B8" cx="1467.458" cy="1059.073" rx="33.918" ry="62.548"/>
	
		<ellipse transform="matrix(0.2541 -0.9672 0.9672 0.2541 185.327 2288.6079)" fill="#403C00" cx="1576.384" cy="1024.155" rx="21.954" ry="21.954"/>
	
		<ellipse transform="matrix(0.2541 -0.9672 0.9672 0.2541 141.1083 2183.4836)" fill="#00003B" cx="1486.121" cy="1000.26" rx="33.918" ry="62.548"/>
	
		<ellipse transform="matrix(0.1633 -0.9866 0.9866 0.1633 389.4426 2369.1113)" fill="#520095" cx="1591.439" cy="954.958" rx="21.954" ry="21.954"/>
	
		<ellipse transform="matrix(0.1633 -0.9866 0.9866 0.1633 327.6047 2265.3545)" fill="#0097B8" cx="1499.35" cy="939.537" rx="33.918" ry="62.548"/>
	
		<ellipse transform="matrix(0.0704 -0.9975 0.9975 0.0704 608.3099 2415.2451)" fill="#640000" cx="1599.993" cy="881.249" rx="21.954" ry="21.954"/>
	
		<ellipse transform="matrix(0.0704 -0.9975 0.9975 0.0704 528.4708 2316.0742)" fill="#285100" cx="1506.866" cy="874.5" rx="33.918" ry="62.548"/>
	
		<ellipse transform="matrix(0.9997 -0.0235 0.0235 0.9997 -18.4608 37.8508)" fill="#B70071" cx="1601.739" cy="804.635" rx="21.954" ry="21.954"/>
	
		<ellipse transform="matrix(0.9997 -0.0235 0.0235 0.9997 -18.5339 35.6584)" fill="#2E301F" cx="1508.39" cy="806.65" rx="62.548" ry="33.918"/>
	
		<ellipse transform="matrix(0.9931 -0.117 0.117 0.9931 -74.3194 191.859)" fill="#003400" cx="1596.569" cy="728.778" rx="21.954" ry="21.954"/>
	
		<ellipse transform="matrix(0.9931 -0.117 0.117 0.9931 -76.2149 181.078)" fill="#009867" cx="1503.818" cy="739.529" rx="62.548" ry="33.918"/>
	
		<ellipse transform="matrix(0.9779 -0.209 0.209 0.9779 -102.4706 345.7393)" fill="#2F0022" cx="1584.742" cy="657.742" rx="21.954" ry="21.954"/>
	
		<ellipse transform="matrix(0.9779 -0.209 0.209 0.9779 -108.5301 327.0749)" fill="#62009B" cx="1493.395" cy="677.083" rx="62.548" ry="33.918"/>
	
		<ellipse transform="matrix(0.9545 -0.2984 0.2984 0.9545 -104.5592 494.2729)" fill="#5100E3" cx="1566.57" cy="589.59" rx="21.954" ry="21.954"/>
	
		<ellipse transform="matrix(0.9545 -0.2984 0.2984 0.9545 -116.8826 468.928)" fill="#2E301F" cx="1477.398" cy="617.279" rx="62.548" ry="33.918"/>
	
		<ellipse transform="matrix(0.9232 -0.3843 0.3843 0.9232 -82.8644 632.9783)" fill="#3A5900" cx="1542.376" cy="523.828" rx="21.954" ry="21.954"/>
	
		<ellipse transform="matrix(0.9232 -0.3843 0.3843 0.9232 -103.2167 602.5673)" fill="#000045" cx="1456.106" cy="559.547" rx="62.548" ry="33.918"/>
	
		<ellipse transform="matrix(0.8847 -0.4662 0.4662 0.8847 -40.4267 758.2419)" fill="#3A5900" cx="1512.484" cy="460.839" rx="21.954" ry="21.954"/>
	
		<ellipse transform="matrix(0.8847 -0.4662 0.4662 0.8847 -70.1806 724.6954)" fill="#5100E3" cx="1429.797" cy="504.21" rx="62.548" ry="33.918"/>
	
		<ellipse transform="matrix(0.8394 -0.5435 0.5435 0.8394 19.3074 867.3157)" fill="#C500CD" cx="1477.221" cy="400.988" rx="21.954" ry="21.954"/>
	
		<ellipse transform="matrix(0.8394 -0.5435 0.5435 0.8394 -20.7988 832.7909)" fill="#912500" cx="1398.75" cy="451.589" rx="62.548" ry="33.918"/>
	
		<ellipse transform="matrix(0.7878 -0.616 0.616 0.7878 92.6859 958.2568)" fill="#001C2E" cx="1436.912" cy="344.628" rx="21.954" ry="21.954"/>
	
		<ellipse transform="matrix(0.7878 -0.616 0.616 0.7878 41.7095 925.0583)" fill="#42F800" cx="1363.248" cy="402.003" rx="62.548" ry="33.918"/>
	
		<ellipse transform="matrix(0.7302 -0.6833 0.6833 0.7302 175.9897 1029.8354)" fill="#CC0000" cx="1391.879" cy="292.096" rx="21.954" ry="21.954"/>
	
		<ellipse transform="matrix(0.7302 -0.6833 0.6833 0.7302 114.0593 1000.3485)" fill="#4EC95B" cx="1323.58" cy="355.763" rx="62.548" ry="33.918"/>
	
		<ellipse transform="matrix(0.6669 -0.7451 0.7451 0.6669 265.5132 1081.4409)" fill="#009867" cx="1342.445" cy="243.72" rx="21.954" ry="21.954"/>
	
		<ellipse transform="matrix(0.6669 -0.7451 0.7451 0.6669 192.9783 1058.0735)" fill="#5EB2E1" cx="1280.039" cy="313.173" rx="62.548" ry="33.918"/>
	
		<ellipse transform="matrix(0.5983 -0.8012 0.8012 0.5983 357.6002 1113.0063)" fill="#00EF00" cx="1288.934" cy="199.826" rx="21.954" ry="21.954"/>
	
		<ellipse transform="matrix(0.5983 -0.8012 0.8012 0.5983 275.2455 1098.1344)" fill="#00003B" cx="1232.924" cy="274.532" rx="62.548" ry="33.918"/>
	
		<ellipse transform="matrix(0.5246 -0.8513 0.8513 0.5246 448.6537 1124.9645)" fill="#009867" cx="1231.678" cy="160.734" rx="21.954" ry="21.954"/>
	
		<ellipse transform="matrix(0.5246 -0.8513 0.8513 0.5246 357.7039 1120.8738)" fill="#00EC00" cx="1182.54" cy="240.13" rx="62.548" ry="33.918"/>
	
		<ellipse transform="matrix(0.4461 -0.895 0.895 0.4461 535.1395 1118.2395)" fill="#403C00" cx="1171.017" cy="126.77" rx="21.954" ry="21.954"/>
	
		<ellipse transform="matrix(0.4461 -0.895 0.895 0.4461 437.2628 1127.0564)" fill="#42F800" cx="1129.202" cy="210.255" rx="62.548" ry="33.918"/>
	
		<ellipse transform="matrix(0.3632 -0.9317 0.9317 0.3632 613.6019 1094.2682)" fill="#00EC00" cx="1107.306" cy="98.257" rx="21.954" ry="21.954"/>
	
		<ellipse transform="matrix(0.3632 -0.9317 0.9317 0.3632 510.906 1117.8772)" fill="#009867" cx="1073.229" cy="185.188" rx="62.548" ry="33.918"/>
	
		<ellipse transform="matrix(0.2763 -0.9611 0.9611 0.2763 680.7071 1055.0426)" fill="#403C00" cx="1040.916" cy="75.523" rx="21.954" ry="21.954"/>
	
		<ellipse transform="matrix(0.2763 -0.9611 0.9611 0.2763 575.7171 1094.9867)" fill="#912500" cx="1014.944" cy="165.21" rx="62.548" ry="33.918"/>
	
		<ellipse transform="matrix(0.1862 -0.9825 0.9825 0.1862 733.3246 1003.1505)" fill="#62009B" cx="972.231" cy="58.891" rx="21.954" ry="21.954"/>
	
		<ellipse transform="matrix(0.1862 -0.9825 0.9825 0.1862 628.9317 1060.5234)" fill="#009867" cx="954.669" cy="150.596" rx="62.548" ry="33.918"/>
	
		<ellipse transform="matrix(0.0938 -0.9956 0.9956 0.0938 767.1095 940.1039)" fill="#9FF300" cx="899.949" cy="48.683" rx="21.954" ry="21.954"/>
	
		<ellipse transform="matrix(0.0938 -0.9956 0.9956 0.0938 666.4818 1015.4421)" fill="#B70071" cx="891.018" cy="141.626" rx="62.548" ry="33.918"/>
	<circle fill="#B70071" cx="823.655" cy="45.208" r="21.954"/>
	<ellipse fill="#B70071" cx="823.476" cy="138.579" rx="33.918" ry="62.548"/>
</g>
</svg>
